HIERARCHY
ROOT joint_Root
{
	OFFSET 0.0 0.0 0.0
	CHANNELS 6 Xposition Yposition Zposition Zrotation Xrotation Yrotation 
	JOINT Hips
	{
		OFFSET -17.1583 93.1646 452.98
		CHANNELS 6 Xposition Yposition Zposition Zrotation Xrotation Yrotation 
		JOINT Spine
		{
			OFFSET 15.7357 0.0 0.0
			CHANNELS 6 Xposition Yposition Zposition Zrotation Xrotation Yrotation 
			JOINT Chest
			{
				OFFSET 8.98455 -0.406207 0.0
				CHANNELS 6 Xposition Yposition Zposition Zrotation Xrotation Yrotation 
				JOINT Neck
				{
					OFFSET 16.3773 0.0 0.0
					CHANNELS 6 Xposition Yposition Zposition Zrotation Xrotation Yrotation 
					JOINT Head
					{
						OFFSET 6.45672 0.0 0.0
						CHANNELS 6 Xposition Yposition Zposition Zrotation Xrotation Yrotation 
						End Site
						{
							OFFSET 0.0 0.0 0.0
						}
					}
				}
				JOINT Shoulder_L
				{
					OFFSET 12.9942 -0.242716 4.98039
					CHANNELS 6 Xposition Yposition Zposition Zrotation Xrotation Yrotation 
					JOINT UpperArm_L
					{
						OFFSET 5.34809 0.0 0.0
						CHANNELS 6 Xposition Yposition Zposition Zrotation Xrotation Yrotation 
						JOINT LowerArm_L
						{
							OFFSET 24.3286 1.87007e-05 0.0
							CHANNELS 6 Xposition Yposition Zposition Zrotation Xrotation Yrotation 
							JOINT Hand_L
							{
								OFFSET 22.2916 0.0 0.0
								CHANNELS 6 Xposition Yposition Zposition Zrotation Xrotation Yrotation 
								End Site
								{
									OFFSET 0.0 0.0 0.0
								}
							}
						}
					}
				}
				JOINT Shoulder_R
				{
					OFFSET 12.9945 -0.242716 -4.98039
					CHANNELS 6 Xposition Yposition Zposition Zrotation Xrotation Yrotation 
					JOINT UpperArm_R
					{
						OFFSET -5.34813 0.0 0.0
						CHANNELS 6 Xposition Yposition Zposition Zrotation Xrotation Yrotation 
						JOINT LowerArm_R
						{
							OFFSET -24.3289 0.000322201 0.0
							CHANNELS 6 Xposition Yposition Zposition Zrotation Xrotation Yrotation 
							JOINT Hand_R
							{
								OFFSET -22.2915 -0.000108084 0.0
								CHANNELS 6 Xposition Yposition Zposition Zrotation Xrotation Yrotation 
								End Site
								{
									OFFSET 0.0 0.0 0.0
								}
							}
						}
					}
				}
			}
		}
		JOINT UpperLeg_L
		{
			OFFSET -2.19248 -6.46944 0.0
			CHANNELS 6 Xposition Yposition Zposition Zrotation Xrotation Yrotation 
			JOINT LowerLeg_L
			{
				OFFSET 39.0811 0.0 -1.23785e-05
				CHANNELS 6 Xposition Yposition Zposition Zrotation Xrotation Yrotation 
				JOINT Foot_L
				{
					OFFSET 40.9854 0.0 -1.26872e-05
					CHANNELS 6 Xposition Yposition Zposition Zrotation Xrotation Yrotation 
					JOINT Toes_L
					{
						OFFSET 11.7543 0.0 0.0
						CHANNELS 6 Xposition Yposition Zposition Zrotation Xrotation Yrotation 
						End Site
						{
							OFFSET 0.0 0.0 0.0
						}
					}
				}
			}
		}
		JOINT UpperLeg_R
		{
			OFFSET -2.19251 6.46944 0.0
			CHANNELS 6 Xposition Yposition Zposition Zrotation Xrotation Yrotation 
			JOINT LowerLeg_R
			{
				OFFSET -39.0811 -0.00228153 -0.0401928
				CHANNELS 6 Xposition Yposition Zposition Zrotation Xrotation Yrotation 
				JOINT Foot_R
				{
					OFFSET -40.9854 0.0 0.0
					CHANNELS 6 Xposition Yposition Zposition Zrotation Xrotation Yrotation 
					JOINT Toes_R
					{
						OFFSET -11.7543 0.0 0.0
						CHANNELS 6 Xposition Yposition Zposition Zrotation Xrotation Yrotation 
						End Site
						{
							OFFSET 0.0 0.0 0.0
						}
					}
				}
			}
		}
	}
}
MOTION
Frames:	8
Frame Time:	0.0333333
0.000000 0.000000 0.000000 0.000000 0.000000 -0.000000 -3.478470 91.915900 -1.371920 84.692300 0.628133 6.260580 15.735700 0.000005 -0.000001 77.829600 86.359100 -75.470500 8.984550 -0.406207 -0.000000 -0.608264 -1.707130 4.707020 16.377300 -0.000001 -0.000001 9.723770 3.472500 -3.682280 6.456720 -0.000001 -0.000000 -2.532110 3.867770 -2.065810 12.994200 -0.242716 4.980390 -93.097800 8.609980 -70.125000 5.348090 -0.000007 -0.000001 -72.880500 27.762500 0.062393 24.328600 0.000019 0.000005 11.218400 27.633300 -23.152900 22.291600 -0.000001 0.000005 -1.870870 4.985670 7.622680 12.994500 -0.242716 -4.980390 87.338700 6.913610 -68.885700 -5.348130 -0.000001 -0.000004 -70.535900 17.951300 -1.181890 -24.328900 0.000322 -0.000009 1.668010 4.070970 -22.316100 -22.291500 -0.000108 -0.000004 -1.024190 5.281790 0.577367 -2.192480 -6.469440 -0.000000 -173.241000 6.107110 -2.268080 39.081100 -0.000007 -0.000012 0.364789 -0.677095 28.314600 40.985400 -0.000006 -0.000013 -0.647390 3.037250 -75.833000 11.754300 -0.000000 0.000003 0.000250 0.163302 -9.953590 -2.192510 6.469440 -0.000001 -170.797000 8.526270 -175.262000 -39.081100 -0.002282 -0.040193 0.133295 -0.442423 16.371000 -40.985400 0.000008 0.000006 5.478470 2.189620 -71.395100 -11.754300 -0.000006 -0.000006 -0.011191 0.279996 -5.195380
0.000000 0.000000 0.000000 0.000000 0.000000 -0.000000 -3.465380 91.915600 -1.355620 84.663900 0.609884 6.256050 15.735700 0.000005 -0.000001 77.587100 86.367400 -75.206500 8.984550 -0.406207 -0.000000 -0.630151 -1.735660 4.749510 16.377300 -0.000001 -0.000001 9.803890 3.493710 -3.688580 6.456720 -0.000001 -0.000000 -2.546510 3.925200 -2.079180 12.994200 -0.242716 4.980390 -93.101800 8.620630 -70.123600 5.348090 -0.000007 -0.000001 -72.878900 27.712900 0.095387 24.328600 0.000019 0.000005 11.223600 27.668700 -23.138200 22.291600 -0.000001 0.000005 -1.900760 4.987670 7.580540 12.994500 -0.242716 -4.980390 87.359200 6.840320 -68.831200 -5.348130 -0.000001 -0.000004 -70.526700 17.502500 -0.739213 -24.328900 0.000322 -0.000009 1.779750 4.013980 -23.948900 -22.291500 -0.000108 -0.000004 -1.118640 5.273490 0.803799 -2.192480 -6.469440 -0.000000 -173.231000 6.085850 -2.265220 39.081100 -0.000007 -0.000012 0.370121 -0.686521 28.331100 40.985400 -0.000006 -0.000013 -0.635344 3.021460 -75.856500 11.754300 -0.000000 0.000003 0.000323 0.161994 -10.006700 -2.192510 6.469440 -0.000001 -170.772000 8.481630 -175.248000 -39.081100 -0.002282 -0.040193 0.131595 -0.437467 16.341500 -40.985400 0.000008 0.000006 5.433890 2.139380 -71.327600 -11.754300 -0.000006 -0.000006 -0.010932 0.278139 -5.271360
0.000000 0.000000 0.000000 0.000000 0.000000 -0.000000 -3.433930 91.920900 -1.365980 84.680700 0.547507 6.211890 15.735700 0.000005 -0.000001 77.380100 86.379400 -74.988600 8.984550 -0.406207 -0.000000 -0.658472 -1.757460 4.770780 16.377300 -0.000001 -0.000001 9.795140 3.532840 -3.726160 6.456720 -0.000001 -0.000000 -2.580830 3.962550 -2.031500 12.994200 -0.242716 4.980390 -93.103600 8.605780 -70.081700 5.348090 -0.000007 -0.000001 -72.930100 27.606100 0.105233 24.328600 0.000019 0.000005 11.275900 27.814500 -23.136900 22.291600 -0.000001 0.000005 -1.806880 4.989990 7.531600 12.994500 -0.242716 -4.980390 87.366300 6.824480 -68.838400 -5.348130 -0.000001 -0.000004 -70.405100 16.806300 -0.185835 -24.328900 0.000322 -0.000009 1.800360 3.655360 -26.260000 -22.291500 -0.000108 -0.000004 -1.393150 5.259440 1.182190 -2.192480 -6.469440 -0.000000 -173.260000 6.048740 -2.287800 39.081100 -0.000007 -0.000012 0.366290 -0.680315 28.299400 40.985400 -0.000006 -0.000013 -0.616964 3.007750 -75.841900 11.754300 -0.000000 0.000003 0.000392 0.160742 -10.057500 -2.192510 6.469440 -0.000001 -170.815000 8.451670 -175.294000 -39.081100 -0.002282 -0.040193 0.131533 -0.436513 16.367800 -40.985400 0.000008 0.000006 5.382920 2.220660 -71.346700 -11.754300 -0.000006 -0.000006 -0.010743 0.276774 -5.327260
0.000000 0.000000 0.000000 0.000000 0.000000 -0.000000 -3.402890 91.923700 -1.376460 84.670900 0.510869 6.165530 15.735700 0.000005 -0.000001 77.230900 86.388600 -74.818000 8.984550 -0.406207 -0.000000 -0.679805 -1.773810 4.813160 16.377300 -0.000001 -0.000001 9.760710 3.554440 -3.712670 6.456720 -0.000001 -0.000000 -2.592940 3.987720 -2.030980 12.994200 -0.242716 4.980390 -93.108200 8.612060 -70.068200 5.348090 -0.000007 -0.000001 -72.921600 27.700800 0.102167 24.328600 0.000019 0.000005 11.211900 27.662500 -23.120400 22.291600 -0.000001 0.000005 -1.873240 4.989370 7.544790 12.994500 -0.242716 -4.980390 87.374500 6.780100 -68.773500 -5.348130 -0.000001 -0.000004 -70.304300 15.683700 0.429407 -24.328900 0.000322 -0.000009 1.873200 3.346080 -29.278400 -22.291500 -0.000108 -0.000004 -1.730340 5.238740 1.729250 -2.192480 -6.469440 -0.000000 -173.263000 6.020430 -2.345570 39.081100 -0.000007 -0.000012 0.363356 -0.674773 28.302700 40.985400 -0.000006 -0.000013 -0.613139 2.952000 -75.800900 11.754300 -0.000000 0.000003 0.000319 0.162066 -10.003800 -2.192510 6.469440 -0.000001 -170.794000 8.350190 -175.359000 -39.081100 -0.002282 -0.040193 0.133770 -0.443716 16.382300 -40.985400 0.000008 0.000006 5.400070 2.171900 -71.392800 -11.754300 -0.000006 -0.000006 -0.011210 0.280132 -5.189820
0.000000 0.000000 0.000000 0.000000 0.000000 -0.000000 -3.382510 91.934300 -1.385420 84.649000 0.474000 6.120840 15.735700 0.000005 -0.000001 76.952900 86.402300 -74.512100 8.984550 -0.406207 -0.000000 -0.713160 -1.804540 4.868270 16.377300 -0.000001 -0.000001 9.773190 3.550230 -3.679730 6.456720 -0.000001 -0.000000 -2.686720 4.019570 -2.024250 12.994200 -0.242716 4.980390 -93.109400 8.613230 -70.063400 5.348090 -0.000007 -0.000001 -72.943500 27.716900 0.151837 24.328600 0.000019 0.000005 11.249800 27.661300 -23.193000 22.291600 -0.000001 0.000005 -1.923400 4.984840 7.640130 12.994500 -0.242716 -4.980390 87.389600 6.711910 -68.690500 -5.348130 -0.000001 -0.000004 -70.202300 14.316000 1.124880 -24.328900 0.000322 -0.000009 2.025110 3.113790 -33.075800 -22.291500 -0.000108 -0.000004 -2.038910 5.217570 2.275290 -2.192480 -6.469440 -0.000000 -173.262000 6.009830 -2.364640 39.081100 -0.000007 -0.000012 0.370119 -0.688146 28.274400 40.985400 -0.000006 -0.000013 -0.605089 2.923330 -75.856800 11.754300 -0.000000 0.000003 0.000070 0.166440 -9.826170 -2.192510 6.469440 -0.000001 -170.813000 8.367310 -175.383000 -39.081100 -0.002282 -0.040193 0.128671 -0.427595 16.337900 -40.985400 0.000008 0.000006 5.269850 2.273080 -71.291500 -11.754300 -0.000006 -0.000006 -0.011038 0.278903 -5.240130
0.000000 0.000000 0.000000 0.000000 0.000000 -0.000000 -3.370070 91.946300 -1.413510 84.626600 0.533890 6.042880 15.735700 0.000005 -0.000001 75.891600 86.421800 -73.423700 8.984550 -0.406207 -0.000000 -0.779105 -1.927980 4.920790 16.377300 -0.000001 -0.000001 9.759820 3.582310 -3.661040 6.456720 -0.000001 -0.000000 -2.788220 4.104860 -1.917050 12.994200 -0.242716 4.980390 -93.113000 8.611420 -70.038300 5.348090 -0.000007 -0.000001 -72.970000 27.725200 0.238435 24.328600 0.000019 0.000005 11.268900 27.647200 -23.238900 22.291600 -0.000001 0.000005 -1.963420 4.986820 7.598450 12.994500 -0.242716 -4.980390 87.434900 6.573470 -68.627400 -5.348130 -0.000001 -0.000004 -70.153300 12.606700 1.864580 -24.328900 0.000322 -0.000009 2.498100 3.237500 -37.699000 -22.291500 -0.000108 -0.000004 -2.380770 5.193400 2.883960 -2.192480 -6.469440 -0.000000 -173.236000 6.063530 -2.465070 39.081100 -0.000007 -0.000012 0.364380 -0.678492 28.238600 40.985400 -0.000006 -0.000013 -0.594888 2.943050 -75.769400 11.754300 -0.000000 0.000003 0.000274 0.162878 -9.970800 -2.192510 6.469440 -0.000001 -170.802000 8.434690 -175.452000 -39.081100 -0.002282 -0.040193 0.126016 -0.420608 16.261700 -40.985400 0.000008 0.000006 5.231320 2.300090 -71.237200 -11.754300 -0.000006 -0.000006 -0.011081 0.279216 -5.227290
0.000000 0.000000 0.000000 0.000000 0.000000 -0.000000 -3.330400 91.951200 -1.438130 84.642000 0.367929 5.980640 15.735700 0.000005 -0.000001 75.902000 86.438600 -73.404500 8.984550 -0.406207 -0.000000 -0.811009 -1.921420 4.979460 16.377300 -0.000001 -0.000001 9.650810 3.654110 -3.504910 6.456720 -0.000001 -0.000000 -2.944150 4.217340 -1.833720 12.994200 -0.242716 4.980390 -93.141000 8.672400 -70.002100 5.348090 -0.000007 -0.000001 -72.950600 27.736700 0.341845 24.328600 0.000019 0.000005 11.320900 27.629000 -23.349800 22.291600 -0.000001 0.000005 -2.001450 4.986280 7.609800 12.994500 -0.242716 -4.980390 87.514600 6.364240 -68.616100 -5.348130 -0.000001 -0.000004 -70.055800 11.092200 2.601220 -24.328900 0.000322 -0.000009 2.953800 3.156500 -43.150100 -22.291500 -0.000108 -0.000004 -2.204870 5.166300 3.550570 -2.192480 -6.469440 -0.000000 -173.273000 5.928790 -2.500480 39.081100 -0.000007 -0.000012 0.365224 -0.680679 28.217000 40.985400 -0.000006 -0.000013 -0.583228 2.863740 -75.744900 11.754300 -0.000000 0.000003 0.000326 0.161940 -10.008900 -2.192510 6.469440 -0.000001 -170.815000 8.274820 -175.555000 -39.081100 -0.002282 -0.040193 0.127690 -0.424347 16.334300 -40.985400 0.000008 0.000006 5.158290 2.292830 -71.240300 -11.754300 -0.000006 -0.000006 -0.010558 0.275430 -5.382250
0.000000 0.000000 0.000000 0.000000 0.000000 -0.000000 -3.316470 91.959100 -1.477070 84.618000 0.312695 5.919580 15.735700 0.000005 -0.000001 75.496700 86.441200 -72.985200 8.984550 -0.406207 -0.000000 -0.827074 -1.970360 5.006930 16.377300 -0.000001 -0.000001 9.408160 3.684250 -3.188200 6.456720 -0.000001 -0.000000 -3.134180 4.336720 -1.511550 12.994200 -0.242716 4.980390 -93.146400 8.687890 -70.002900 5.348090 -0.000007 -0.000001 -72.897200 27.825400 0.377906 24.328600 0.000019 0.000005 11.318400 27.566600 -23.388600 22.291600 -0.000001 0.000005 -2.023720 4.985690 7.622380 12.994500 -0.242716 -4.980390 87.583700 6.176250 -68.584100 -5.348130 -0.000001 -0.000004 -69.971200 9.462780 3.310950 -24.328900 0.000322 -0.000009 3.730830 3.216220 -49.295700 -22.291500 -0.000108 -0.000004 -1.793990 5.146800 4.019080 -2.192480 -6.469440 -0.000000 -173.250000 5.918540 -2.576040 39.081100 -0.000007 -0.000012 0.365416 -0.681223 28.210500 40.985400 -0.000006 -0.000013 -0.580164 2.856070 -75.724700 11.754300 -0.000000 0.000003 0.000311 0.162222 -9.997430 -2.192510 6.469440 -0.000001 -170.800000 8.291090 -175.622000 -39.081100 -0.002282 -0.040193 0.126203 -0.420397 16.292900 -40.985400 0.000008 0.000006 5.194690 2.376300 -71.196400 -11.754300 -0.000006 -0.000006 -0.011381 0.281352 -5.139870
